<?xml version="1.0" encoding="UTF-8" standalone="no"?>
<svg
   xmlns:dc="http://purl.org/dc/elements/1.1/"
   xmlns:cc="http://creativecommons.org/ns#"
   xmlns:rdf="http://www.w3.org/1999/02/22-rdf-syntax-ns#"
   xmlns:svg="http://www.w3.org/2000/svg"
   xmlns="http://www.w3.org/2000/svg"
   xmlns:sodipodi="http://sodipodi.sourceforge.net/DTD/sodipodi-0.dtd"
   xmlns:inkscape="http://www.inkscape.org/namespaces/inkscape"
   version="1.0"
   width="225.000000pt"
   height="58.000000pt"
   viewBox="0 0 225.000000 58.000000"
   preserveAspectRatio="xMidYMid meet"
   id="svg38"
   sodipodi:docname="logo-mywebsite-urian-viera.svg"
   inkscape:version="0.92.5 (2060ec1f9f, 2020-04-08)">
  <metadata
     id="metadata44">
    <rdf:RDF>
      <cc:Work
         rdf:about="">
        <dc:format>image/svg+xml</dc:format>
        <dc:type
           rdf:resource="http://purl.org/dc/dcmitype/StillImage" />
      </cc:Work>
    </rdf:RDF>
  </metadata>
  <defs
     id="defs42" />
  <sodipodi:namedview
     pagecolor="#ffffff"
     bordercolor="#666666"
     borderopacity="1"
     objecttolerance="10"
     gridtolerance="10"
     guidetolerance="10"
     inkscape:pageopacity="0"
     inkscape:pageshadow="2"
     inkscape:window-width="1366"
     inkscape:window-height="703"
     id="namedview40"
     showgrid="false"
     inkscape:zoom="1.22"
     inkscape:cx="150"
     inkscape:cy="38.666667"
     inkscape:window-x="0"
     inkscape:window-y="0"
     inkscape:window-maximized="1"
     inkscape:current-layer="svg38" />
  <path
     style="fill:#000000;stroke:none;stroke-width:0.1"
     inkscape:connector-curvature="0"
     id="path2"
     d="m 192.6,7 c -3.2,3.9 -4.6,8.5 -5.3,18.2 -1.7,21.9 9.9,36.4 17.1,21.4 1.6,-3.4 1.9,-3.6 6.6,-3.6 3.7,0 5.5,-0.5 7,-2 2.5,-2.5 2.5,-4.3 -0.2,-9.1 -1.8,-3.3 -1.9,-4.1 -0.8,-5.6 1.3,-1.7 1.3,-1.7 -0.5,-0.1 -1.7,1.6 -2,1.6 -5.4,-1.4 -2,-1.7 -3.9,-4.3 -4.2,-5.7 -0.6,-2.3 -0.7,-2.4 -0.8,-0.4 -0.1,2.2 -0.2,2.2 -3.1,0.5 -2.5,-1.4 -2.7,-1.8 -1.2,-2.4 1,-0.3 0.3,-0.6 -1.8,-0.5 -1.9,0 -4.8,-0.2 -6.5,-0.6 -2.8,-0.7 -2.8,-0.6 0.3,0.6 l 3.3,1.3 -3.6,1.7 c -1.9,0.9 -3.8,1.7 -4,1.7 -1.3,0 -0.2,-5 1.9,-9.7 3.2,-6.8 5.9,-7.7 9.8,-3.4 1.5,1.7 2.8,3.8 2.8,4.6 0,0.8 0.4,1.5 0.9,1.5 1.7,0 -1,-5.9 -3.6,-8 -3.5,-2.8 -5.7,-2.5 -8.7,1 z m 8.7,12.6 c 1.8,0.9 5.4,3.2 8,5.2 l 4.8,3.5 -2.2,2.3 c -3.1,3.3 -3.7,3 -4.2,-1.9 -0.4,-4 -0.4,-4 -0.3,0.7 0,4.8 -0.1,4.9 -4.7,7.3 L 198,39 193.7,36.8 c -2.3,-1.2 -4.5,-2.1 -4.9,-2 -0.5,0.1 -0.8,-2.6 -0.8,-6 v -6.3 l 4.8,-2.2 c 2.6,-1.1 4.8,-2.2 5,-2.2 0.2,-0.1 1.7,0.6 3.5,1.5 z m 16.1,13.8 c 2,4.2 2,4.5 -0.1,6.8 -1.1,1.2 -3,1.8 -6.3,1.8 h -4.7 l 0.6,-3.5 c 0.4,-2.4 1.7,-4.2 4,-6 1.9,-1.4 3.8,-2.5 4.2,-2.5 0.4,0 1.4,1.5 2.3,3.4 z m -22.7,5 c 2.6,1.4 6,2.8 7.6,3.1 3.1,0.8 3.1,0.8 1.3,4.3 -2.2,4.2 -5.2,6.5 -7.5,5.7 -1.8,-0.6 -6.8,-8.2 -5.9,-9 0.2,-0.1 1.7,-0.7 3.3,-1.3 2.9,-1.1 2.9,-1.1 -0.7,-0.6 -3.6,0.6 -3.8,0.5 -3.8,-2 0,-1.4 0.2,-2.6 0.4,-2.6 0.2,0 2.6,1.1 5.3,2.4 z m 10.5,1.8 c -0.5,0.5 -2.2,0.6 -3.7,0.2 l -2.8,-0.7 3.4,-1.8 c 3,-1.5 3.4,-1.5 3.7,-0.2 0.2,0.8 0,1.9 -0.6,2.5 z" />
  <path
     style="fill:#000000;stroke:none;stroke-width:0.1"
     inkscape:connector-curvature="0"
     id="path4"
     d="m 178.2,15.6 c -2.5,1.8 -2.8,4.4 -0.8,8.2 1.7,3.2 8.6,10.1 8.6,8.5 0,-0.6 -0.7,-1.3 -1.5,-1.6 -1.9,-0.8 -7.5,-8.6 -7.5,-10.6 0,-3.1 1.9,-4.5 6.7,-5.2 l 4.8,-0.6 -4,-0.2 c -2.3,0 -5,0.6 -6.3,1.5 z" />
  <path
     style="fill:#000000;stroke:none;stroke-width:0.1"
     inkscape:connector-curvature="0"
     id="path6"
     d="m 209.5,15.7 c 4.4,0.3 6.7,1 8.5,2.6 2.1,1.9 2.2,1.9 1,0.2 -2.4,-3.2 -3.2,-3.5 -9.5,-3.3 l -6,0.2 z" />
  <path
     style="fill:#000000;stroke:none;stroke-width:0.1"
     inkscape:connector-curvature="0"
     id="path8"
     d="m 218.5,22.1 c -0.4,0.6 -0.5,1.2 -0.2,1.5 0.2,0.3 0.7,-0.2 1,-1.1 0.7,-1.7 0.1,-2 -0.8,-0.4 z" />
  <path
     style="fill:#000000;stroke:none;stroke-width:0.1"
     inkscape:connector-curvature="0"
     id="path10"
     d="m 99.147541,28.159016 v 10.5 h 6.999999 c 5.8,0 7.1,-0.3 8,-1.9 1.4,-2.7 1.3,-11.4 -0.2,-12.9 -0.7,-0.7 -3.6,-1.2 -6.5,-1.2 -5,0 -5.3,-0.1 -5.3,-2.5 0,-1.6 -0.6,-2.5 -1.5,-2.5 -1.199999,0 -1.499999,1.8 -1.499999,10.5 z m 12.299999,0.7 c 0.7,5.1 -0.8,7 -5.1,6.6 -3.7,-0.3 -3.7,-0.4 -4,-5.1 l -0.3,-4.7 h 4.4 c 4.3,0 4.5,0.1 5,3.2 z" />
  <path
     style="fill:#000000;stroke:none;stroke-width:0.1"
     inkscape:connector-curvature="0"
     id="path12"
     d="m 137,24.5 c 0,0.8 0.7,1.5 1.5,1.5 0.8,0 1.5,-0.7 1.5,-1.5 0,-0.8 -0.7,-1.5 -1.5,-1.5 -0.8,0 -1.5,0.7 -1.5,1.5 z" />
  <path
     style="fill:#000000;stroke:none;stroke-width:0.1"
     inkscape:connector-curvature="0"
     id="path14"
     d="m 143.14754,26.959016 c 0,10.6 0.6,11.7 6.2,11.7 4.9,0 5.4,-2.7 0.6,-3.2 -3.2,-0.3 -3.3,-0.5 -3.3,-4.8 0,-4.3 0.1,-4.5 3.3,-4.8 1.9,-0.2 3.2,-0.9 3.2,-1.7 0,-0.8 -1.3,-1.5 -3.2,-1.7 -2.7,-0.2 -3.3,-0.7 -3.1,-2.6 0.2,-1.6 -0.2,-2.2 -1.7,-2.2 -1.9,0 -2,0.7 -2,9.3 z" />
  <path
     style="fill:#000000;stroke:none;stroke-width:0.1"
     inkscape:connector-curvature="0"
     id="path16"
     d="m 5.1475409,28.659016 c 0,8.2 0.3,10 1.5,10 1.2,0 1.5,-1.5 1.5,-7.3 l 0.1,-7.2 4.0000001,4.3 c 4.5,4.7 4.1,4.8 8.5,-1.6 2.6,-3.6 3.4,-2.6 3.4,4.8 0,5.6 0.3,7 1.5,7 1.2,0 1.5,-1.8 1.5,-10 0,-9.2 -0.2,-10 -1.9,-10 -1.1,0 -3.6,1.9 -5.5,4.2 l -3.7,4.3 -3.7,-4.3 c -6.1000001,-6.9 -7.2000001,-6 -7.2000001,5.8 z" />
  <path
     style="fill:#000000;stroke:none;stroke-width:0.1"
     inkscape:connector-curvature="0"
     id="path18"
     d="m 182.9,25.7 c -1.3,1.7 -1.3,1.7 0.6,0.3 1.1,-0.8 2.2,-1.6 2.4,-1.7 0.2,-0.2 0,-0.3 -0.6,-0.3 -0.6,0 -1.7,0.8 -2.4,1.7 z" />
  <path
     style="fill:#000000;stroke:none;stroke-width:0.1"
     inkscape:connector-curvature="0"
     id="path20"
     d="m 30.147541,28.759016 c 0,8.7 0.9,9.9 7.5,9.9 4.2,0 5.5,0.3 5.5,1.5 0,1.1 -1.2,1.5 -5,1.5 -3.8,0 -5,0.4 -5,1.5 0,1.3 1.1,1.5 6.2,1.3 7.4,-0.4 7.6,-0.9 7,-13.6 -0.3,-6 -0.8,-8.2 -1.8,-8.2 -0.9,0 -1.4,1.8 -1.6,6.2 l -0.3,6.3 h -4 -4 l -0.3,-6.3 c -0.3,-5.4 -0.6,-6.2 -2.2,-6.2 -1.8,0 -2,0.7 -2,6.1 z" />
  <path
     style="fill:#000000;stroke:none;stroke-width:0.1"
     inkscape:connector-curvature="0"
     id="path22"
     d="m 50.147541,23.359016 c -0.1,2.4 5.7,15.3 6.8,15.3 0.7,0 2.2,-2.3 3.4,-5 1.1,-2.8 2.4,-5 2.8,-5 0.4,0 1.7,2.2 2.8,5 1.2,2.7 2.7,5 3.5,5 0.8,0 2.3,-2.8 3.7,-6.8 1.3,-3.7 2.5,-7.3 2.8,-8 0.2,-0.6 -0.3,-1.2 -1.2,-1.2 -0.9,0 -2.1,1.2 -2.6,2.7 -2.6,7.2 -2.6,7.2 -5.1,2 -1.4,-2.9 -3,-4.7 -4.1,-4.7 -1.1,0 -2.5,1.7 -3.9,4.7 l -2.1,4.8 -2,-4.8 c -1.1,-2.6 -2.7,-4.7 -3.4,-4.7 -0.8,0 -1.4,0.3 -1.4,0.7 z" />
  <path
     style="fill:#000000;stroke:none;stroke-width:0.1"
     inkscape:connector-curvature="0"
     id="path24"
     d="m 80.347541,24.859016 c -1.2,3.5 -0.6,12 1,12.9 0.7,0.5 4.4,0.9 8.1,0.9 5.8,0 6.8,-0.2 6.5,-1.6 -0.2,-1.3 -1.6,-1.7 -6.2,-1.8 -8.4,-0.1 -8.8,-2.4 -0.4,-2.8 6,-0.3 6.3,-0.4 6.6,-3 0.6,-5.3 -1.2,-6.8 -8.4,-6.8 -5.8,0 -6.5,0.2 -7.2,2.2 z m 11.8,2.3 c 0,1.1 -1.2,1.5 -4.5,1.5 -3.3,0 -4.5,-0.4 -4.5,-1.5 0,-1.1 1.2,-1.5 4.5,-1.5 3.3,0 4.5,0.4 4.5,1.5 z" />
  <path
     style="fill:#000000;stroke:none;stroke-width:0.1"
     inkscape:connector-curvature="0"
     id="path26"
     d="m 118.24754,24.559016 c -2.7,5 0,8.1 7.1,8.1 3.5,0 4.8,0.4 4.6,1.2 -0.5,1.5 -6.2,2 -9.3,0.8 -2.9,-1.1 -3.7,-0.3 -2.4,2.1 0.8,1.5 2.1,1.9 6.7,1.9 7,0 8.5,-0.9 8.5,-5 0,-4 -1.5,-5 -7.5,-5 -3.8,0 -4.8,-0.4 -4.8,-1.6 0,-1.4 0.9,-1.6 6.1,-1.1 5.2,0.4 6,0.3 5.7,-1.1 -0.3,-1.4 -1.7,-1.8 -7,-2 -5.8,-0.3 -6.8,0 -7.7,1.7 z" />
  <path
     style="fill:#000000;stroke:none;stroke-width:0.1"
     inkscape:connector-curvature="0"
     id="path28"
     d="m 137.14754,30.659016 c 0,6.4 0.3,8 1.5,8 1.2,0 1.5,-1.6 1.5,-8 0,-6.4 -0.3,-8 -1.5,-8 -1.2,0 -1.5,1.6 -1.5,8 z" />
  <path
     style="fill:#000000;stroke:none;stroke-width:0.1"
     inkscape:connector-curvature="0"
     id="path30"
     d="m 156.34754,24.359016 c -0.9,1.9 -0.8,10.4 0.2,12.9 0.4,1 2.5,1.4 8.1,1.4 6.6,0 7.6,-0.2 7.3,-1.7 -0.2,-1.4 -1.4,-1.6 -6.6,-1.4 -5,0.2 -6.2,-0.1 -6.2,-1.3 0,-1.2 1.4,-1.6 6.3,-1.8 5.9,-0.3 6.2,-0.4 6.5,-3 0.6,-5.3 -1.2,-6.8 -8.3,-6.8 -5.1,0 -6.6,0.4 -7.3,1.7 z m 11.8,2.8 c 0,1.1 -1.2,1.5 -4.5,1.5 -3.3,0 -4.5,-0.4 -4.5,-1.5 0,-1.1 1.2,-1.5 4.5,-1.5 3.3,0 4.5,0.4 4.5,1.5 z" />
  <path
     style="fill:#000000;stroke:none;stroke-width:0.1"
     inkscape:connector-curvature="0"
     id="path32"
     d="m 177,32.2 c -1.1,1.8 -2,4 -2,4.9 0,1.7 3,4.9 4.6,4.9 0.4,0 -0.2,-0.7 -1.4,-1.6 -2.7,-1.9 -2.8,-3.9 -0.2,-8.2 1.1,-1.7 1.7,-3.2 1.5,-3.2 -0.3,0 -1.4,1.5 -2.5,3.2 z" />
  <path
     style="fill:#000000;stroke:none;stroke-width:0.1"
     inkscape:connector-curvature="0"
     id="path34"
     d="m 182.3,42.7 c 0.9,0.2 2.5,0.2 3.5,0 0.9,-0.3 0.1,-0.5 -1.8,-0.5 -1.9,0 -2.7,0.2 -1.7,0.5 z" />
</svg>
